<svg width="58" height="58" viewBox="0 0 58 58" fill="none" xmlns="http://www.w3.org/2000/svg">
<path d="M52.2 21.2668V17.3999H38.6675L27.0669 28.9999L5.80005 34.7999L7.73377 46.3999H17.6744C18.5368 49.7303 21.536 52.1999 25.1338 52.1999C28.7327 52.1999 31.7307 49.7303 32.5937 46.3999H52.2V42.533H32.5931C31.7301 39.2027 28.7321 36.733 25.1332 36.733C21.5354 36.733 18.5363 39.2027 17.6738 42.533H11.009L10.1889 37.6112L27.5837 32.8668H52.2V28.9999H32.5346L40.2683 21.2668H52.2ZM25.1332 40.5999C27.2664 40.5999 29 42.3289 29 44.4668C29 46.6041 27.267 48.333 25.1338 48.333C22.9994 48.333 21.2669 46.6041 21.2669 44.4668C21.2669 42.3289 22.9994 40.5999 25.1332 40.5999Z" fill="#111111"/>
<path d="M30.7387 9.10128L26.8893 12.9519C26.1335 13.7065 24.9097 13.7065 24.1546 12.9519C23.4 12.1962 23.4 10.9718 24.1546 10.2172L28.0052 6.36658C25.8499 5.3423 23.2034 5.70074 21.4204 7.4825C19.6381 9.266 19.2802 11.9131 20.3045 14.0678L10.2328 24.1395C9.4765 24.8941 9.47766 26.1173 10.2328 26.8731C10.988 27.6288 12.2112 27.6294 12.9669 26.8731L23.0386 16.8014C25.1928 17.8251 27.8405 17.4678 29.6228 15.6854C31.4057 13.9037 31.7642 11.256 30.7387 9.10128Z" fill="#111111"/>
</svg>
