<svg width="60" height="60" viewBox="0 0 60 60" fill="none" xmlns="http://www.w3.org/2000/svg">
<path d="M30 6C16.7442 6 6 16.7442 6 30C6 43.2558 16.7442 54 30 54C43.2558 54 54 43.2558 54 30C54 16.7442 43.2558 6 30 6ZM30 49.9998C18.9534 49.9998 10.0002 41.0466 10.0002 30C10.0002 18.9528 18.9534 10.0002 30 10.0002C41.0466 10.0002 49.9998 18.9528 49.9998 30C49.9998 41.0466 41.0466 49.9998 30 49.9998Z" fill="#111111"/>
<path d="M30 16.0002C22.2654 16.0002 16.0002 22.266 16.0002 30C16.0002 37.7328 22.2654 43.9998 30 43.9998C37.7328 43.9998 43.9998 37.7328 43.9998 30C43.9998 22.2654 37.7328 16.0002 30 16.0002ZM38.6586 25.0824L31.9998 27.246V20.2014C34.869 20.7852 37.254 22.617 38.6586 25.0824ZM28.0002 20.2014V27.246L21.3414 25.0836C22.746 22.617 25.131 20.7852 28.0002 20.2014ZM19.9998 30C19.9998 29.6208 20.07 29.2602 20.1114 28.8906L26.766 31.0506L22.6428 36.7248C21.0156 34.947 19.9998 32.5998 19.9998 30ZM25.8708 39.0864L30.0018 33.4026L34.131 39.0864C32.8692 39.6606 31.4766 40.0002 30 40.0002C28.5234 40.0002 27.1332 39.6606 25.8708 39.0864ZM37.3596 36.7224L33.2364 31.0506L39.8892 28.887C39.93 29.2578 40.0008 29.6196 40.0008 30C40.0002 32.5998 38.9844 34.9452 37.3596 36.7224Z" fill="#111111"/>
</svg>
