<svg width="60" height="60" viewBox="0 0 60 60" fill="none" xmlns="http://www.w3.org/2000/svg">
<g clip-path="url(#clip0_1743_71)">
<path d="M58.107 16.292L53 13.125V7.00004C53 6.20439 52.6839 5.44133 52.1213 4.87872C51.5587 4.31611 50.7957 4.00004 50 4.00004H38.3L33.432 0.98404C32.4023 0.344359 31.2142 0.00537109 30.002 0.00537109C28.7898 0.00537109 27.6017 0.344359 26.572 0.98404L21.705 4.00004H10C9.20436 4.00004 8.44129 4.31611 7.87869 4.87872C7.31608 5.44133 7.00001 6.20439 7.00001 7.00004V13.123L1.89001 16.294C1.31115 16.6518 0.833538 17.1518 0.502693 17.7465C0.171848 18.3411 -0.00121095 19.0106 6.37803e-06 19.691V56C6.37803e-06 57.0609 0.421434 58.0783 1.17158 58.8285C1.92172 59.5786 2.93914 60 4.00001 60H56C57.0609 60 58.0783 59.5786 58.8284 58.8285C59.5786 58.0783 60 57.0609 60 56V19.691C60.0011 19.01 59.8276 18.34 59.4962 17.745C59.1649 17.15 58.6866 16.6497 58.107 16.292ZM57.83 56.8L34.758 38.5L58 20.065V56C57.9995 56.2756 57.9416 56.5481 57.83 56.8ZM57.05 17.988C57.114 18.029 57.164 18.083 57.223 18.129L53 21.48V15.48L57.05 17.988ZM27.631 2.68004C28.3425 2.23695 29.1639 2.00208 30.002 2.00208C30.8402 2.00208 31.6615 2.23695 32.373 2.68004L34.5 4.00004H25.5L27.631 2.68004ZM10 6.00004H50C50.2652 6.00004 50.5196 6.1054 50.7071 6.29293C50.8947 6.48047 51 6.73482 51 7.00004V23.066L33.149 37.226L32.862 37C32.0497 36.3509 31.0408 35.9973 30.001 35.9973C28.9612 35.9973 27.9523 36.3509 27.14 37L26.851 37.229L9.00001 23.066V7.00004C9.00001 6.73482 9.10536 6.48047 9.2929 6.29293C9.48044 6.1054 9.73479 6.00004 10 6.00004ZM2.17001 56.8C2.05845 56.5481 2.00056 56.2756 2.00001 56V20.065L25.242 38.5L2.17001 56.8ZM7.00001 15.478V21.478L2.77701 18.13C2.83501 18.085 2.88401 18.03 2.94701 17.991L7.00001 15.478ZM4.00001 58C3.96201 58 3.92701 57.991 3.89001 57.989L28.382 38.564C28.8422 38.1978 29.4129 37.9985 30.001 37.9985C30.5891 37.9985 31.1598 38.1978 31.62 38.564L56.11 57.989C56.073 57.989 56.038 58 56 58H4.00001Z" fill="#9D7053"/>
<path d="M14 24H46C46.2652 24 46.5196 23.8946 46.7071 23.7071C46.8946 23.5196 47 23.2652 47 23C47 22.7348 46.8946 22.4804 46.7071 22.2929C46.5196 22.1054 46.2652 22 46 22H14C13.7348 22 13.4804 22.1054 13.2929 22.2929C13.1054 22.4804 13 22.7348 13 23C13 23.2652 13.1054 23.5196 13.2929 23.7071C13.4804 23.8946 13.7348 24 14 24Z" fill="#9D7053"/>
<path d="M39 28H21C20.7348 28 20.4804 28.1054 20.2929 28.2929C20.1054 28.4804 20 28.7348 20 29C20 29.2652 20.1054 29.5196 20.2929 29.7071C20.4804 29.8946 20.7348 30 21 30H39C39.2652 30 39.5196 29.8946 39.7071 29.7071C39.8946 29.5196 40 29.2652 40 29C40 28.7348 39.8946 28.4804 39.7071 28.2929C39.5196 28.1054 39.2652 28 39 28Z" fill="#9D7053"/>
<path d="M16 18.9999C16.2652 18.9999 16.5196 18.8946 16.7071 18.707C16.8946 18.5195 17 18.2651 17 17.9999V14.2379L19.105 18.4489C19.1883 18.6148 19.3162 18.7542 19.4743 18.8515C19.6323 18.9488 19.8144 19.0002 20 18.9999C20.077 18.9997 20.1538 18.991 20.229 18.9739C20.4485 18.9223 20.6441 18.798 20.7841 18.6212C20.924 18.4443 21.0001 18.2254 21 17.9999V9.99992C21 9.7347 20.8946 9.48035 20.7071 9.29281C20.5196 9.10528 20.2652 8.99992 20 8.99992C19.7348 8.99992 19.4804 9.10528 19.2929 9.29281C19.1053 9.48035 19 9.7347 19 9.99992V13.7639L16.9 9.55492C16.801 9.35048 16.6353 9.18583 16.4303 9.08807C16.2253 8.99031 15.9931 8.96527 15.7719 9.01707C15.5507 9.06887 15.3538 9.19442 15.2135 9.37306C15.0732 9.5517 14.9979 9.77278 15 9.99992V17.9999C15 18.2651 15.1053 18.5195 15.2929 18.707C15.4804 18.8946 15.7348 18.9999 16 18.9999Z" fill="#9D7053"/>
<path d="M25 19H27C27.2652 19 27.5196 18.8946 27.7071 18.7071C27.8946 18.5196 28 18.2652 28 18C28 17.7348 27.8946 17.4804 27.7071 17.2929C27.5196 17.1054 27.2652 17 27 17H25V15H26C26.2652 15 26.5196 14.8946 26.7071 14.7071C26.8946 14.5196 27 14.2652 27 14C27 13.7348 26.8946 13.4804 26.7071 13.2929C26.5196 13.1054 26.2652 13 26 13H25V11H27C27.2652 11 27.5196 10.8946 27.7071 10.7071C27.8946 10.5196 28 10.2652 28 10C28 9.73478 27.8946 9.48043 27.7071 9.29289C27.5196 9.10536 27.2652 9 27 9H25C24.4696 9 23.9609 9.21071 23.5858 9.58579C23.2107 9.96086 23 10.4696 23 11V17C23 17.5304 23.2107 18.0391 23.5858 18.4142C23.9609 18.7893 24.4696 19 25 19Z" fill="#9D7053"/>
<path d="M31.249 18.958C31.3723 18.9869 31.4984 19.0017 31.625 19.002C31.9258 19.0017 32.2206 18.9172 32.4759 18.7582C32.7312 18.5991 32.937 18.3718 33.07 18.102L33.5 17.242L33.93 18.102C34.0928 18.4288 34.3612 18.691 34.6918 18.8461C35.0223 19.0012 35.3955 19.0401 35.7509 18.9566C36.1063 18.873 36.423 18.6718 36.6498 18.3856C36.8765 18.0995 36.9999 17.7451 37 17.38V10C37 9.73478 36.8947 9.48043 36.7071 9.29289C36.5196 9.10536 36.2652 9 36 9C35.7348 9 35.4804 9.10536 35.2929 9.29289C35.1054 9.48043 35 9.73478 35 10V15.769L34.4 14.558C34.3076 14.403 34.1765 14.2747 34.0197 14.1856C33.8628 14.0965 33.6854 14.0496 33.505 14.0496C33.3246 14.0496 33.1472 14.0965 32.9904 14.1856C32.8335 14.2747 32.7024 14.403 32.61 14.558L32 15.771V10C32 9.73478 31.8946 9.48043 31.7071 9.29289C31.5196 9.10536 31.2652 9 31 9C30.7348 9 30.4804 9.10536 30.2929 9.29289C30.1054 9.48043 30 9.73478 30 10V17.38C29.9991 17.7455 30.122 18.1006 30.3489 18.3872C30.5757 18.6738 30.893 18.875 31.249 18.958Z" fill="#9D7053"/>
<path d="M42 17H40C39.7348 17 39.4804 17.1054 39.2929 17.2929C39.1054 17.4804 39 17.7348 39 18C39 18.2652 39.1054 18.5196 39.2929 18.7071C39.4804 18.8946 39.7348 19 40 19H42C42.7957 19 43.5587 18.6839 44.1213 18.1213C44.6839 17.5587 45 16.7956 45 16C45 15.2044 44.6839 14.4413 44.1213 13.8787C43.5587 13.3161 42.7957 13 42 13C41.7348 13 41.4804 12.8946 41.2929 12.7071C41.1054 12.5196 41 12.2652 41 12C41 11.7348 41.1054 11.4804 41.2929 11.2929C41.4804 11.1054 41.7348 11 42 11H44C44.2652 11 44.5196 10.8946 44.7071 10.7071C44.8946 10.5196 45 10.2652 45 10C45 9.73478 44.8946 9.48043 44.7071 9.29289C44.5196 9.10536 44.2652 9 44 9H42C41.2044 9 40.4413 9.31607 39.8787 9.87868C39.3161 10.4413 39 11.2044 39 12C39 12.7956 39.3161 13.5587 39.8787 14.1213C40.4413 14.6839 41.2044 15 42 15C42.2652 15 42.5196 15.1054 42.7071 15.2929C42.8946 15.4804 43 15.7348 43 16C43 16.2652 42.8946 16.5196 42.7071 16.7071C42.5196 16.8946 42.2652 17 42 17Z" fill="#9D7053"/>
</g>
<defs>
<clipPath id="clip0_1743_71">
<rect width="60" height="60" fill="white"/>
</clipPath>
</defs>
</svg>
