<svg width="22" height="22" viewBox="0 0 22 22" fill="none" xmlns="http://www.w3.org/2000/svg">
<g clip-path="url(#clip0_2041_1368)">
<path d="M17.0307 13.6983C15.7479 13.6983 14.5994 14.2835 13.8374 15.2008L8.88062 12.3865C9.03476 11.9528 9.11948 11.4863 9.11948 11.0003C9.11948 10.5143 9.03476 10.0479 8.88062 9.61416L13.837 6.79919C14.599 7.71679 15.7476 8.30219 17.0305 8.30219C19.3188 8.30219 21.1806 6.43978 21.1806 4.15047C21.1808 1.86183 19.319 0 17.0307 0C14.7421 0 12.8801 1.86183 12.8801 4.15037C12.8801 4.63643 12.9648 5.10292 13.119 5.53679L8.16228 8.35186C7.40037 7.43474 6.25203 6.84973 4.9695 6.84973C2.68058 6.84973 0.818359 8.71156 0.818359 11.0002C0.818359 13.2887 2.68058 15.1506 4.9695 15.1506C6.25203 15.1506 7.40027 14.5656 8.16218 13.6485L13.119 16.4629C12.9648 16.8968 12.88 17.3634 12.88 17.8495C12.88 20.1381 14.742 21.9999 17.0306 21.9999C19.3189 21.9999 21.1807 20.138 21.1807 17.8495C21.1808 15.5606 19.319 13.6983 17.0307 13.6983ZM17.0307 1.45236C18.5182 1.45236 19.7284 2.66266 19.7284 4.15037C19.7284 5.63885 18.5182 6.84973 17.0307 6.84973C15.5429 6.84973 14.3325 5.63885 14.3325 4.15037C14.3325 2.66266 15.5429 1.45236 17.0307 1.45236ZM4.9696 13.6983C3.48151 13.6983 2.27082 12.4879 2.27082 11.0003C2.27082 9.51249 3.48151 8.30219 4.9696 8.30219C6.45711 8.30219 7.66722 9.51249 7.66722 11.0003C7.66722 12.4879 6.45701 13.6983 4.9696 13.6983ZM17.0307 20.5476C15.5429 20.5476 14.3325 19.3372 14.3325 17.8496C14.3325 16.3614 15.5429 15.1507 17.0307 15.1507C18.5182 15.1507 19.7284 16.3614 19.7284 17.8496C19.7284 19.3372 18.5182 20.5476 17.0307 20.5476Z" fill="white"/>
</g>
<defs>
<clipPath id="clip0_2041_1368">
<rect width="22" height="22" fill="white"/>
</clipPath>
</defs>
</svg>
