<svg width="55" height="55" viewBox="0 0 55 55" fill="none" xmlns="http://www.w3.org/2000/svg">
<path d="M45.8331 12.8336H42.1668L40.3331 9.16675H36.6668L34.8331 12.8336H20.1668L18.3331 9.16675H14.6668L12.8331 12.8336H9.16685C7.15055 12.8336 5.5 14.4841 5.5 16.4999V42.1667C5.5 44.1825 7.15055 45.833 9.16685 45.833H45.8331C47.8494 45.833 49.5 44.1825 49.5 42.1667V16.4999C49.5 14.4841 47.8494 12.8336 45.8331 12.8336ZM45.8331 42.1667H9.16685V16.4999H45.8331V42.1667Z" fill="#111111"/>
<path d="M42.1667 27.5001H38.4999V23.8333H34.833V27.5001H31.1667V31.167H34.833V34.8333H38.4999V31.167H42.1667V27.5001Z" fill="#111111"/>
<path d="M12.8333 27.5H23.8333V31.1668H12.8333V27.5Z" fill="#111111"/>
</svg>
