<svg width="55" height="55" viewBox="0 0 55 55" fill="none" xmlns="http://www.w3.org/2000/svg">
<path d="M12.8333 15.5837H16.5001V24.7506H12.8333V15.5837Z" fill="#111111"/>
<path d="M5.5 15.5837H9.16685V29.3337H5.5V15.5837Z" fill="#111111"/>
<path d="M20.1667 15.5837H23.833V19.2506H20.1667V15.5837Z" fill="#111111"/>
<path d="M20.1669 9.16636H16.5V5.49951H12.8332V9.16691H9.16685C7.14175 9.16691 5.5 10.8076 5.5 12.8338L23.8332 12.8327C23.8332 10.8076 22.1936 9.16636 20.1669 9.16636Z" fill="#111111"/>
<path d="M45.8331 31.1689L42.7471 21.9069C42.4281 20.951 41.3413 20.1689 40.3331 20.1689H25.6668L18.3331 31.1689L7.18465 35.944C6.259 36.3411 5.5 37.4939 5.5 38.5004V45.8352H13.1697C13.9271 47.9676 15.9412 49.5004 18.3331 49.5004C20.7256 49.5004 22.7397 47.9676 23.4971 45.8352H33.3371C34.0945 47.9676 36.1102 49.5004 38.5005 49.5004C40.8925 49.5004 42.9066 47.9676 43.6639 45.8352H49.5V34.8352C49.5 32.8101 47.8604 31.1689 45.8331 31.1689ZM34.8331 23.8352H39.5241L41.9694 31.1689H34.8331V23.8352ZM27.6287 23.8352H31.1668V31.1689H22.7397L27.6287 23.8352ZM18.3331 45.8352C17.32 45.8352 16.5 45.0157 16.5 44.0004C16.5 42.9884 17.32 42.1689 18.3331 42.1689C19.3468 42.1689 20.1668 42.9884 20.1668 44.0004C20.1668 45.0157 19.3468 45.8352 18.3331 45.8352ZM38.5 45.8352C37.4863 45.8352 36.6668 45.0157 36.6668 44.0004C36.6668 42.9884 37.4863 42.1689 38.5 42.1689C39.5136 42.1689 40.3331 42.9884 40.3331 44.0004C40.3331 45.0157 39.5136 45.8352 38.5 45.8352ZM45.8331 42.1689H43.6634C42.906 40.0366 40.8919 38.5004 38.5 38.5004C36.1097 38.5004 34.0956 40.0366 33.3366 42.1689H23.4971C22.7375 40.0366 20.7256 38.5004 18.3331 38.5004C15.9412 38.5004 13.9287 40.0366 13.1697 42.1689H9.16685V39.0862L19.085 34.8352H45.8331V42.1689Z" fill="#111111"/>
</svg>
