<svg width="57" height="57" viewBox="0 0 57 57" fill="none" xmlns="http://www.w3.org/2000/svg">
<path d="M41.7999 11.3999H26.6002C25.0265 11.3999 23.6015 12.0383 22.5703 13.07L11.1703 24.47C10.1381 25.5017 9.50024 26.9267 9.50024 28.4999V45.5999C9.50024 48.7469 12.0516 51.2999 15.2002 51.2999H41.7999C44.9468 51.2999 47.4999 48.7486 47.4999 45.6016V17.0999C47.4999 13.9529 44.9468 11.3999 41.7999 11.3999ZM25.2568 15.7564V25.2566C25.2568 26.3071 24.4052 27.157 23.3569 27.157H13.8568L25.2568 15.7564ZM43.7002 45.6016C43.7002 46.6481 42.8487 47.4997 41.7999 47.4997H15.2002C14.1514 47.4997 13.2999 46.6481 13.2999 45.5999V30.9566H23.3569C26.5022 30.9566 29.0569 28.407 29.0569 25.2566V15.2001H41.7999C42.8487 15.2001 43.7002 16.054 43.7002 17.0999V45.6016Z" fill="#111111"/>
<path d="M40.1297 35.87L36.0998 31.9216L32.0699 35.87C31.0382 36.9051 30.3998 38.3267 30.3998 39.8999C30.3998 43.0469 32.9494 45.5999 36.0998 45.5999C39.245 45.5999 41.7998 43.0469 41.7998 39.8999C41.7998 38.3262 41.1619 36.9051 40.1297 35.87V35.87ZM36.0998 41.7997C35.0516 41.7997 34.2 40.9482 34.2 39.8999C34.2 39.2171 34.5522 38.7628 34.762 38.553L36.0998 37.2409L37.4712 38.5844C37.6473 38.7628 38.0002 39.2165 38.0002 39.8999C38.0002 40.9482 37.1486 41.7997 36.0998 41.7997V41.7997Z" fill="#111111"/>
<path d="M39.9 9.50014V7.60033C39.9 6.55495 39.0444 5.69995 38.0002 5.69995H34.2C33.1552 5.69995 32.3002 6.55495 32.3002 7.59976V9.49957H39.9V9.50014Z" fill="#111111"/>
</svg>
