<svg width="16" height="16" viewBox="0 0 16 16" fill="none" xmlns="http://www.w3.org/2000/svg">
<g clip-path="url(#clip0_2078_842)">
<path d="M4.66667 0H2.66667C1.95942 0 1.28115 0.280952 0.781049 0.781049C0.280952 1.28115 0 1.95942 0 2.66667L0 4.66667C0 5.37391 0.280952 6.05219 0.781049 6.55229C1.28115 7.05238 1.95942 7.33333 2.66667 7.33333H4.66667C5.37391 7.33333 6.05219 7.05238 6.55229 6.55229C7.05238 6.05219 7.33333 5.37391 7.33333 4.66667V2.66667C7.33333 1.95942 7.05238 1.28115 6.55229 0.781049C6.05219 0.280952 5.37391 0 4.66667 0V0ZM6 4.66667C6 5.02029 5.85952 5.35943 5.60948 5.60948C5.35943 5.85952 5.02029 6 4.66667 6H2.66667C2.31304 6 1.97391 5.85952 1.72386 5.60948C1.47381 5.35943 1.33333 5.02029 1.33333 4.66667V2.66667C1.33333 2.31304 1.47381 1.97391 1.72386 1.72386C1.97391 1.47381 2.31304 1.33333 2.66667 1.33333H4.66667C5.02029 1.33333 5.35943 1.47381 5.60948 1.72386C5.85952 1.97391 6 2.31304 6 2.66667V4.66667Z" fill="#666666"/>
<path d="M13.3327 0H11.3327C10.6254 0 9.94716 0.280952 9.44706 0.781049C8.94697 1.28115 8.66602 1.95942 8.66602 2.66667V4.66667C8.66602 5.37391 8.94697 6.05219 9.44706 6.55229C9.94716 7.05238 10.6254 7.33333 11.3327 7.33333H13.3327C14.0399 7.33333 14.7182 7.05238 15.2183 6.55229C15.7184 6.05219 15.9993 5.37391 15.9993 4.66667V2.66667C15.9993 1.95942 15.7184 1.28115 15.2183 0.781049C14.7182 0.280952 14.0399 0 13.3327 0V0ZM14.666 4.66667C14.666 5.02029 14.5255 5.35943 14.2755 5.60948C14.0254 5.85952 13.6863 6 13.3327 6H11.3327C10.9791 6 10.6399 5.85952 10.3899 5.60948C10.1398 5.35943 9.99935 5.02029 9.99935 4.66667V2.66667C9.99935 2.31304 10.1398 1.97391 10.3899 1.72386C10.6399 1.47381 10.9791 1.33333 11.3327 1.33333H13.3327C13.6863 1.33333 14.0254 1.47381 14.2755 1.72386C14.5255 1.97391 14.666 2.31304 14.666 2.66667V4.66667Z" fill="#666666"/>
<path d="M4.66667 8.66675H2.66667C1.95942 8.66675 1.28115 8.9477 0.781049 9.4478C0.280952 9.94789 0 10.6262 0 11.3334L0 13.3334C0 14.0407 0.280952 14.7189 0.781049 15.219C1.28115 15.7191 1.95942 16.0001 2.66667 16.0001H4.66667C5.37391 16.0001 6.05219 15.7191 6.55229 15.219C7.05238 14.7189 7.33333 14.0407 7.33333 13.3334V11.3334C7.33333 10.6262 7.05238 9.94789 6.55229 9.4478C6.05219 8.9477 5.37391 8.66675 4.66667 8.66675ZM6 13.3334C6 13.687 5.85952 14.0262 5.60948 14.2762C5.35943 14.5263 5.02029 14.6667 4.66667 14.6667H2.66667C2.31304 14.6667 1.97391 14.5263 1.72386 14.2762C1.47381 14.0262 1.33333 13.687 1.33333 13.3334V11.3334C1.33333 10.9798 1.47381 10.6407 1.72386 10.3906C1.97391 10.1406 2.31304 10.0001 2.66667 10.0001H4.66667C5.02029 10.0001 5.35943 10.1406 5.60948 10.3906C5.85952 10.6407 6 10.9798 6 11.3334V13.3334Z" fill="#666666"/>
<path d="M13.3327 8.6665H11.3327C10.6254 8.6665 9.94716 8.94746 9.44706 9.44755C8.94697 9.94765 8.66602 10.6259 8.66602 11.3332V13.3332C8.66602 14.0404 8.94697 14.7187 9.44706 15.2188C9.94716 15.7189 10.6254 15.9998 11.3327 15.9998H13.3327C14.0399 15.9998 14.7182 15.7189 15.2183 15.2188C15.7184 14.7187 15.9993 14.0404 15.9993 13.3332V11.3332C15.9993 10.6259 15.7184 9.94765 15.2183 9.44755C14.7182 8.94746 14.0399 8.6665 13.3327 8.6665ZM14.666 13.3332C14.666 13.6868 14.5255 14.0259 14.2755 14.276C14.0254 14.526 13.6863 14.6665 13.3327 14.6665H11.3327C10.9791 14.6665 10.6399 14.526 10.3899 14.276C10.1398 14.0259 9.99935 13.6868 9.99935 13.3332V11.3332C9.99935 10.9795 10.1398 10.6404 10.3899 10.3904C10.6399 10.1403 10.9791 9.99984 11.3327 9.99984H13.3327C13.6863 9.99984 14.0254 10.1403 14.2755 10.3904C14.5255 10.6404 14.666 10.9795 14.666 11.3332V13.3332Z" fill="#666666"/>
</g>
<defs>
<clipPath id="clip0_2078_842">
<rect width="16" height="16" fill="white"/>
</clipPath>
</defs>
</svg>
