<svg width="20" height="20" viewBox="0 0 20 20" fill="none" xmlns="http://www.w3.org/2000/svg">
<g clip-path="url(#clip0_1013_2683)">
<path d="M7.07019 17.0312C7.07019 18.0005 7.85873 18.789 8.82798 18.789C9.79722 18.789 10.5858 18.0005 10.5858 17.0312C10.5858 16.062 9.79722 15.2734 8.82798 15.2734C7.85873 15.2734 7.07019 16.062 7.07019 17.0312ZM8.82798 16.4453C9.15106 16.4453 9.4139 16.7081 9.4139 17.0312C9.4139 17.3543 9.15106 17.6172 8.82798 17.6172C8.50489 17.6172 8.24205 17.3543 8.24205 17.0312C8.24205 16.7081 8.50489 16.4453 8.82798 16.4453Z" fill="#111111"/>
<path d="M12.9686 17.0312C12.9686 18.0005 13.7571 18.789 14.7264 18.789C15.6956 18.789 16.4841 18.0005 16.4841 17.0312C16.4841 16.062 15.6956 15.2734 14.7264 15.2734C13.7571 15.2734 12.9686 16.062 12.9686 17.0312ZM14.7264 16.4453C15.0494 16.4453 15.3123 16.7081 15.3123 17.0312C15.3123 17.3543 15.0494 17.6172 14.7264 17.6172C14.4033 17.6172 14.1404 17.3543 14.1404 17.0312C14.1404 16.7081 14.4033 16.4453 14.7264 16.4453Z" fill="#111111"/>
<path d="M19.4138 3.55489H4.58262C4.382 2.8526 4.19505 2.19824 4.03447 1.63617C3.96263 1.38462 3.73268 1.21118 3.47108 1.21118H0.585928C0.26234 1.21118 0 1.47352 0 1.79711C0 2.1207 0.26234 2.38304 0.585928 2.38304H3.02909C3.68432 4.6766 5.21609 10.038 5.85827 12.2856L5.63628 12.7296C5.05133 13.8996 5.90323 15.2735 7.20852 15.2735H17.07C17.3936 15.2735 17.656 15.0111 17.656 14.6875C17.656 14.3639 17.3936 14.1016 17.07 14.1016H7.20852C6.77275 14.1016 6.48974 13.6431 6.68443 13.2536L6.84638 12.9297H17.07C17.3316 12.9297 17.5616 12.7564 17.6334 12.5048L19.9771 4.3018C20.0839 3.92817 19.8032 3.55489 19.4138 3.55489ZM16.6281 11.7579H6.92626C6.60701 10.6404 5.7135 7.51323 4.91742 4.72675H18.637L16.6281 11.7579Z" fill="#111111"/>
</g>
<defs>
<clipPath id="clip0_1013_2683">
<rect width="20" height="20" fill="white"/>
</clipPath>
</defs>
</svg>
