<svg width="54" height="54" viewBox="0 0 54 54" fill="none" xmlns="http://www.w3.org/2000/svg">
<path d="M10.8 37.8C7.81868 37.8 5.40002 40.2187 5.40002 43.2C5.40002 46.1814 7.81868 48.6 10.8 48.6C13.7814 48.6 16.2 46.1814 16.2 43.2C16.2 40.2187 13.7814 37.8 10.8 37.8ZM10.8 44.9999C9.80858 44.9999 9.0002 44.1931 9.0002 43.2C9.0002 42.207 9.80858 41.4002 10.8 41.4002C11.7915 41.4002 12.5998 42.207 12.5998 43.2C12.5998 44.1931 11.7915 44.9999 10.8 44.9999Z" fill="#111111"/>
<path d="M41.4002 23.3997V9.00008H44.9998V5.3999H12.5998V9.00008H16.2L10.8 30.6001H5.40002V34.1997H10.8C15.7621 34.1997 19.8002 38.2378 19.8002 43.1999V44.9997H34.5303C35.2755 47.0917 37.2525 48.5999 39.5998 48.5999C41.9472 48.5999 43.9242 47.0917 44.6704 44.9997H48.6V23.3997H41.4002ZM23.2557 41.4001C22.8404 38.5116 21.4467 35.9428 19.4168 34.0312L24.664 26.5387L26.8753 28.0875L28.424 25.8762L21.0519 20.7143L19.5032 22.9256L21.7167 24.4743L16.4711 31.9641C15.8053 31.6266 15.1076 31.342 14.3797 31.1255L19.9114 8.99954H37.8V30.5995H27V34.1992H30.7984C28.8652 36.0908 27.5481 38.598 27.1437 41.3995H23.2557V41.4001ZM39.5998 44.9997C38.6068 44.9997 37.8 44.193 37.8 43.1999C37.8 42.2068 38.6068 41.4001 39.5998 41.4001C40.5934 41.4001 41.4002 42.2068 41.4002 43.1999C41.4002 44.193 40.5934 44.9997 39.5998 44.9997ZM44.9998 41.4001H44.6704C43.9242 39.3081 41.9472 37.7999 39.5998 37.7999C37.2525 37.7999 35.2755 39.3081 34.5303 41.4001H30.7827C31.6186 37.2966 35.2528 34.1997 39.5998 34.1997H44.9998V41.4001ZM44.9998 30.6001H41.4002V26.9999H44.9998V30.6001Z" fill="#111111"/>
</svg>
