<svg width="16" height="16" viewBox="0 0 16 16" fill="none" xmlns="http://www.w3.org/2000/svg">
<path d="M11.332 16H4.66536C2.82736 16 1.33203 14.5047 1.33203 12.6667V3.33333C1.33203 1.49533 2.82736 0 4.66536 0H11.332C13.17 0 14.6654 1.49533 14.6654 3.33333V12.6667C14.6654 14.5047 13.17 16 11.332 16ZM4.66536 1.33333C3.5627 1.33333 2.66536 2.23067 2.66536 3.33333V12.6667C2.66536 13.7693 3.5627 14.6667 4.66536 14.6667H11.332C12.4347 14.6667 13.332 13.7693 13.332 12.6667V3.33333C13.332 2.23067 12.4347 1.33333 11.332 1.33333H4.66536ZM11.9987 4C11.9987 3.632 11.7 3.33333 11.332 3.33333H8.66536C8.29736 3.33333 7.9987 3.632 7.9987 4C7.9987 4.368 8.29736 4.66667 8.66536 4.66667H11.332C11.7 4.66667 11.9987 4.368 11.9987 4ZM11.9987 8C11.9987 7.632 11.7 7.33333 11.332 7.33333H8.66536C8.29736 7.33333 7.9987 7.632 7.9987 8C7.9987 8.368 8.29736 8.66667 8.66536 8.66667H11.332C11.7 8.66667 11.9987 8.368 11.9987 8ZM11.9987 12C11.9987 11.632 11.7 11.3333 11.332 11.3333H8.66536C8.29736 11.3333 7.9987 11.632 7.9987 12C7.9987 12.368 8.29736 12.6667 8.66536 12.6667H11.332C11.7 12.6667 11.9987 12.368 11.9987 12ZM6.66536 4.66667V3.33333C6.66536 2.96533 6.3667 2.66667 5.9987 2.66667H4.66536C4.29736 2.66667 3.9987 2.96533 3.9987 3.33333V4.66667C3.9987 5.03467 4.29736 5.33333 4.66536 5.33333H5.9987C6.3667 5.33333 6.66536 5.03467 6.66536 4.66667ZM6.66536 8.66667V7.33333C6.66536 6.96533 6.3667 6.66667 5.9987 6.66667H4.66536C4.29736 6.66667 3.9987 6.96533 3.9987 7.33333V8.66667C3.9987 9.03467 4.29736 9.33333 4.66536 9.33333H5.9987C6.3667 9.33333 6.66536 9.03467 6.66536 8.66667ZM6.66536 12.6667V11.3333C6.66536 10.9653 6.3667 10.6667 5.9987 10.6667H4.66536C4.29736 10.6667 3.9987 10.9653 3.9987 11.3333V12.6667C3.9987 13.0347 4.29736 13.3333 4.66536 13.3333H5.9987C6.3667 13.3333 6.66536 13.0347 6.66536 12.6667Z" fill="#666666"/>
</svg>
