<svg width="60" height="44" viewBox="0 0 60 44" fill="none" xmlns="http://www.w3.org/2000/svg">
<path d="M23.3575 0.141235H0.00125122V20.5787H13.2863C13.1638 33.305 1.30625 35.7087 1.30625 35.7087C1.30625 35.7087 1.24375 36.135 1.30625 43.86C21.075 40.0675 23.18 25.1962 23.3513 20.5787H23.3563V20.4512C23.3825 19.6612 23.3563 19.1662 23.3563 19.1662V0.141235H23.3575Z" fill="#E3E3E3"/>
<path d="M59.9875 19.165V0.141235H36.6325V20.5787H49.9188C49.7963 33.305 37.9388 35.7087 37.9388 35.7087C37.9388 35.7087 37.8763 36.135 37.9388 43.86C57.7075 40.0675 59.8125 25.1962 59.9838 20.5787H59.9888V20.4512C60.0138 19.6612 59.9875 19.165 59.9875 19.165Z" fill="#E3E3E3"/>
</svg>
