<svg width="9" height="9" viewBox="0 0 9 9" fill="none" xmlns="http://www.w3.org/2000/svg">
<path d="M7.20117 0.396036L3.42117 5.39604L1.79117 3.28604C1.62806 3.07651 1.3884 2.94037 1.12491 2.90755C0.861421 2.87473 0.595687 2.94793 0.386166 3.11104C0.176645 3.27414 0.0404994 3.5138 0.00768058 3.77729C-0.0251383 4.04078 0.0480575 4.30652 0.211166 4.51604L2.64117 7.62604C2.73534 7.74521 2.85542 7.84137 2.99231 7.90722C3.12919 7.97306 3.27927 8.00685 3.43117 8.00604C3.58388 8.00567 3.73449 7.97033 3.87143 7.90272C4.00837 7.83512 4.12801 7.73705 4.22117 7.61604L8.79117 1.61604C8.95295 1.40386 9.02382 1.13611 8.98819 0.871686C8.95255 0.60726 8.81334 0.367818 8.60117 0.206036C8.38899 0.0442537 8.12124 -0.0266167 7.85682 0.00901524C7.59239 0.0446472 7.35295 0.183863 7.19116 0.396036H7.20117Z" fill="#121212"/>
</svg>
